<svg width="14" height="21" viewBox="0 0 14 21" fill="none" xmlns="http://www.w3.org/2000/svg">
<path d="M2.22461 20.4512H11.7852C13.1328 20.4512 13.7871 19.7773 13.7871 18.3223V10.9297C13.7871 9.62109 13.2402 8.9375 12.1367 8.83008V6.45703C12.1367 2.7168 9.61719 0.919922 7 0.919922C4.38281 0.919922 1.87305 2.7168 1.87305 6.45703V8.85938C0.818359 9.00586 0.212891 9.67969 0.212891 10.9297V18.3223C0.212891 19.7773 0.876953 20.4512 2.22461 20.4512ZM3.93359 6.28125C3.93359 4.11328 5.31055 2.90234 7 2.90234C8.68945 2.90234 10.0664 4.11328 10.0664 6.28125V8.81055L3.93359 8.82031V6.28125Z" fill="#EBEBF5" fill-opacity="0.3"/>
</svg>
