<svg width="21" height="22" viewBox="0 0 21 22" fill="none" xmlns="http://www.w3.org/2000/svg">
<path fill-rule="evenodd" clip-rule="evenodd" d="M10.3802 0C9.89037 0 9.41757 0.179757 9.05147 0.505181L0.671272 7.95425C0.244295 8.33378 0 8.87779 0 9.44907V10.75V12.5V20C0 21.1046 0.895431 22 2 22H19C20.1046 22 21 21.1046 21 20V12.5V7.25V2C21 0.895431 20.1046 0 19 0H10.3802ZM10.3802 2H19V6.25H10.355C9.8957 6.25 9.45036 6.40811 9.09385 6.69777L5.62332 9.51758L2 9.69875V9.44907L10.3802 2ZM2 13.5H19V20H2V13.5Z" fill="#EBEBF5" fill-opacity="0.6"/>
</svg>
