<svg width="19" height="11" viewBox="0 0 19 11" fill="none" xmlns="http://www.w3.org/2000/svg">
<path d="M1.10156 8.50781C0.857422 8.76172 0.720703 9.06445 0.720703 9.42578C0.720703 10.168 1.30664 10.7539 2.0293 10.7539C2.40039 10.7539 2.74219 10.6074 2.99609 10.3438L9.50977 3.6543L16.0039 10.3438C16.2578 10.6074 16.6094 10.7539 16.9609 10.7539C17.6934 10.7539 18.2793 10.168 18.2793 9.42578C18.2793 9.06445 18.1523 8.75195 17.8984 8.50781L10.5547 0.998047C10.2422 0.675781 9.90039 0.529297 9.5 0.519531C9.09961 0.519531 8.75781 0.675781 8.44531 0.998047L1.10156 8.50781Z" fill="#EBEBF5" fill-opacity="0.6"/>
</svg>
