<svg width="18" height="16" viewBox="0 0 18 16" fill="none" xmlns="http://www.w3.org/2000/svg">
<path d="M1.5127 5.59961C2.70801 5.23438 3.94482 5.04346 5.12354 5.04346C6.64258 5.04346 7.76318 5.28418 9.19922 5.28418C10.7432 5.28418 11.7559 4.22168 11.7559 2.82715C11.7559 1.41602 10.6768 0.386719 9.31543 0.386719C8.35254 0.386719 7.48096 0.976074 7.09912 1.78955C6.9248 2.12988 6.99951 2.51172 7.33154 2.69434C7.66357 2.87695 8.07031 2.76904 8.27783 2.37061C8.45215 1.99707 8.85889 1.71484 9.31543 1.71484C9.94629 1.71484 10.4277 2.14648 10.4277 2.82715C10.4277 3.51611 9.94629 3.95605 9.19922 3.95605C7.85449 3.95605 6.70068 3.71533 5.12354 3.71533C3.77881 3.71533 2.39258 3.94775 1.11426 4.32959C0.70752 4.4458 0.524902 4.81104 0.624512 5.16797C0.732422 5.5332 1.07275 5.72412 1.5127 5.59961ZM14.5532 9.65039C16.5537 9.65039 17.9731 8.36377 17.9731 6.5791C17.9731 4.82764 16.6284 3.53271 14.9268 3.53271C13.4658 3.53271 12.3037 4.52051 12.0215 5.85693C11.9219 6.25537 12.1128 6.6123 12.4697 6.70361C12.835 6.79492 13.2002 6.5874 13.3164 6.13916C13.4741 5.38379 14.1465 4.86084 14.9268 4.86084C15.8896 4.86084 16.645 5.56641 16.645 6.5791C16.645 7.6167 15.8232 8.32227 14.5532 8.32227C12.0381 8.32227 9.26562 6.87793 5.92871 6.87793C4.21045 6.87793 2.625 7.15186 1.11426 7.6665C0.70752 7.79932 0.524902 8.15625 0.624512 8.51318C0.732422 8.87842 1.08936 9.07764 1.521 8.92822C2.89893 8.43018 4.31836 8.20605 5.92871 8.20605C9.21582 8.20605 11.7061 9.65039 14.5532 9.65039ZM9.21582 15.6353C10.5605 15.6353 11.6064 14.6309 11.6064 13.2197C11.6064 11.1777 9.52295 10.0405 5.75439 10.0405C4.21875 10.0405 2.54199 10.3311 1.11426 10.8208C0.70752 10.9536 0.524902 11.3105 0.624512 11.6592C0.732422 12.0244 1.08936 12.2319 1.521 12.0825C2.83252 11.6177 4.28516 11.3687 5.75439 11.3687C8.67627 11.3687 10.2783 12.0908 10.2783 13.2197C10.2783 13.9004 9.81348 14.3071 9.21582 14.3071C8.65137 14.3071 8.29443 13.9419 8.15332 13.3359C8.04541 12.9707 7.72998 12.7383 7.33154 12.8213C6.9248 12.9126 6.75879 13.3027 6.875 13.7012C7.11572 14.7969 7.99561 15.6353 9.21582 15.6353Z" fill="#EBEBF5" fill-opacity="0.6"/>
</svg>
