<svg width="7" height="12" viewBox="0 0 7 12" fill="none" xmlns="http://www.w3.org/2000/svg">
<path d="M6.9165 6.41699C6.9165 6.2583 6.85303 6.1123 6.73242 5.99805L1.70508 1.07227C1.59082 0.964355 1.45117 0.907227 1.28613 0.907227C0.962402 0.907227 0.708496 1.15479 0.708496 1.48486C0.708496 1.64355 0.771973 1.78955 0.873535 1.89746L5.49463 6.41699L0.873535 10.9365C0.771973 11.0444 0.708496 11.1841 0.708496 11.3491C0.708496 11.6792 0.962402 11.9268 1.28613 11.9268C1.45117 11.9268 1.59082 11.8696 1.70508 11.7554L6.73242 6.83594C6.85303 6.71533 6.9165 6.57568 6.9165 6.41699Z" fill="white"/>
</svg>
