<svg width="7" height="12" viewBox="0 0 7 12" fill="none" xmlns="http://www.w3.org/2000/svg">
<path d="M0.0898438 6.41699C0.0898438 6.57568 0.146973 6.71533 0.267578 6.83594L5.30127 11.7554C5.40918 11.8696 5.54883 11.9268 5.71387 11.9268C6.04395 11.9268 6.29785 11.6792 6.29785 11.3491C6.29785 11.1841 6.22803 11.0444 6.12646 10.9365L1.50537 6.41699L6.12646 1.89746C6.22803 1.78955 6.29785 1.64355 6.29785 1.48486C6.29785 1.15479 6.04395 0.907227 5.71387 0.907227C5.54883 0.907227 5.40918 0.964355 5.30127 1.07227L0.267578 5.99805C0.146973 6.1123 0.0898438 6.2583 0.0898438 6.41699Z" fill="white"/>
</svg>
