<svg width="20" height="21" viewBox="0 0 20 21" fill="none" xmlns="http://www.w3.org/2000/svg">
<path d="M10 10.8516C10.4688 10.8516 10.791 10.5098 10.791 10.0215V1.25195C10.791 0.753906 10.4688 0.421875 10 0.421875C9.53125 0.421875 9.21875 0.753906 9.21875 1.25195V10.0215C9.21875 10.5098 9.53125 10.8516 10 10.8516ZM10 20.9102C15.4492 20.9102 19.9609 16.3887 19.9609 10.9492C19.9609 7.95117 18.5938 5.35352 16.7188 3.64453C15.8594 2.86328 14.7559 4.02539 15.6055 4.83594C17.2656 6.34961 18.291 8.51758 18.3008 10.9492C18.3105 15.5586 14.6094 19.25 10 19.25C5.39062 19.25 1.70898 15.5586 1.70898 10.9492C1.71875 8.49805 2.74414 6.33984 4.39453 4.82617C5.25391 4.00586 4.14062 2.85352 3.28125 3.63477C1.39648 5.34375 0.0390625 7.95117 0.0390625 10.9492C0.0390625 16.3887 4.56055 20.9102 10 20.9102Z" fill="url(#paint0_linear_1_40)"/>
<defs>
<linearGradient id="paint0_linear_1_40" x1="10" y1="-1" x2="10" y2="23" gradientUnits="userSpaceOnUse">
<stop stop-color="#2FB8FF"/>
<stop offset="1" stop-color="#9EECD9"/>
</linearGradient>
</defs>
</svg>
