<svg width="20" height="19" viewBox="0 0 20 19" fill="none" xmlns="http://www.w3.org/2000/svg">
<path fill-rule="evenodd" clip-rule="evenodd" d="M3.16667 0.791667C3.16667 0.354441 3.52111 0 3.95833 0C6.28831 0 10.9758 1.64385 13.5472 7.0661C13.7749 7.02076 14.0482 6.94929 14.3602 6.85179C14.9219 6.67627 15.5405 6.43885 16.1226 6.19631C16.7028 5.95458 17.2361 5.71219 17.6249 5.52992C17.8191 5.43892 17.9765 5.36324 18.0849 5.31054C18.1391 5.2842 18.181 5.26363 18.209 5.24978L18.2405 5.23418L18.2481 5.2304L18.2498 5.22955L18.2501 5.22941C18.6412 5.03388 19.1167 5.19239 19.3123 5.58346C19.5078 5.97452 19.3493 6.45005 18.9582 6.64559L18.6042 5.9375C18.9582 6.64559 18.9581 6.64562 18.9581 6.64567L18.9578 6.64579L18.957 6.64617L18.9544 6.64747L18.945 6.65217L18.9096 6.66967C18.8789 6.68482 18.8342 6.70676 18.7771 6.73454C18.6628 6.79008 18.4986 6.86902 18.2969 6.96357C17.8941 7.15239 17.3389 7.40479 16.7316 7.65785C16.1262 7.91011 15.4583 8.16748 14.8325 8.36305C14.227 8.55227 13.5858 8.70833 13.0625 8.70833C12.2864 8.70833 11.1765 8.61875 10.0469 8.52758L9.8024 8.50787C8.56449 8.40831 7.31116 8.3125 6.33333 8.3125C5.25789 8.3125 3.98426 8.58557 2.99947 9.03321C2.5073 9.25692 2.12792 9.50599 1.88336 9.75055C1.63883 9.99508 1.58333 10.1767 1.58333 10.2917V14.6458H6.35319C6.55171 12.6455 8.2394 11.0832 10.292 11.0832C12.3446 11.0832 14.0323 12.6455 14.2308 14.6458H17.0208C17.4581 14.6458 17.8125 15.0003 17.8125 15.4375C17.8125 15.8747 17.4581 16.2292 17.0208 16.2292H14.0691C13.5646 17.835 12.0643 18.9998 10.292 18.9998C8.51965 18.9998 7.01937 17.835 6.51492 16.2292H0.791667C0.354441 16.2292 0 15.8747 0 15.4375V10.2917C0 9.61501 0.340333 9.0544 0.763775 8.63096C1.18718 8.20755 1.74791 7.86287 2.34428 7.59179C3.53657 7.04984 5.03378 6.72917 6.33333 6.72917C7.38669 6.72917 8.70628 6.83127 9.92932 6.92963L10.1394 6.94655C10.7225 6.99355 11.2766 7.0382 11.7735 7.07109C9.4336 2.78552 5.63316 1.58333 3.95833 1.58333C3.52111 1.58333 3.16667 1.22889 3.16667 0.791667ZM12.2712 15.0415C12.2712 16.1346 11.3851 17.0207 10.292 17.0207C9.19893 17.0207 8.31283 16.1346 8.31283 15.0415C8.31283 13.9484 9.19893 13.0623 10.292 13.0623C11.3851 13.0623 12.2712 13.9484 12.2712 15.0415Z" fill="#EBEBF5" fill-opacity="0.6"/>
</svg>
