<svg width="34" height="34" viewBox="0 0 34 34" fill="none" xmlns="http://www.w3.org/2000/svg">
<path d="M7.60262 15.2053L17 34L26.3974 15.2053C29.8903 8.21943 24.8104 0 17 0C9.18959 0 4.1097 8.21942 7.60262 15.2053Z" fill="url(#paint0_linear_1_49)"/>
<path d="M13.0249 13.1533C13.0249 13.4009 13.2153 13.585 13.4819 13.585H17.0684L15.1768 18.7266C14.9292 19.3804 15.6084 19.7295 16.0337 19.1963L21.8037 11.9854C21.9116 11.8521 21.9688 11.7251 21.9688 11.5791C21.9688 11.3379 21.7783 11.1475 21.5117 11.1475H17.9253L19.8169 6.00586C20.0645 5.35205 19.3853 5.00293 18.96 5.54248L13.1899 12.7471C13.082 12.8867 13.0249 13.0137 13.0249 13.1533Z" fill="black"/>
<defs>
<linearGradient id="paint0_linear_1_49" x1="17" y1="0" x2="17" y2="34" gradientUnits="userSpaceOnUse">
<stop stop-color="#2FB8FF"/>
<stop offset="1" stop-color="#9EECD9"/>
</linearGradient>
</defs>
</svg>
