<svg width="20" height="20" viewBox="0 0 20 20" fill="none" xmlns="http://www.w3.org/2000/svg">
<path d="M9.15332 19.1128H10.8467C11.5688 19.1128 12.1416 18.6646 12.3076 17.9756L12.6313 16.5728L12.814 16.5063L14.0342 17.2534C14.6484 17.6353 15.3706 17.5356 15.877 17.021L17.0474 15.8589C17.562 15.3359 17.6533 14.6221 17.2715 14.0161L16.5161 12.8042L16.5825 12.6299L17.9771 12.2979C18.666 12.1318 19.1143 11.5591 19.1143 10.8369V9.20996C19.1143 8.49609 18.666 7.91504 17.9771 7.74902L16.5908 7.40869L16.5244 7.22607L17.2798 6.01416C17.6616 5.4165 17.5703 4.70264 17.0474 4.16309L15.8853 3.00098C15.3789 2.49463 14.6567 2.39502 14.0508 2.76855L12.8223 3.51562L12.6313 3.44922L12.3076 2.03809C12.1416 1.34912 11.5688 0.900879 10.8467 0.900879H9.15332C8.43115 0.900879 7.8584 1.34912 7.69238 2.03809L7.36865 3.44922L7.16943 3.51562L5.94922 2.76855C5.34326 2.39502 4.62109 2.49463 4.11475 3.00098L2.94434 4.16309C2.42969 4.70264 2.33838 5.4165 2.72021 6.01416L3.47559 7.22607L3.40918 7.40869L2.02295 7.74902C1.32568 7.92334 0.885742 8.49609 0.885742 9.20996V10.8369C0.885742 11.5591 1.33398 12.1318 2.02295 12.2979L3.41748 12.6299L3.48389 12.8042L2.72852 14.0161C2.34668 14.6221 2.43799 15.3359 2.95264 15.8589L4.12305 17.021C4.62939 17.5356 5.35156 17.6353 5.95752 17.2534L7.18604 16.5063L7.36865 16.5728L7.69238 17.9756C7.8584 18.6646 8.43115 19.1128 9.15332 19.1128ZM9.41895 17.4526C9.27783 17.4526 9.21143 17.3862 9.18652 17.27L8.70508 15.2363C8.15723 15.1118 7.63428 14.896 7.19434 14.6055L5.40967 15.7095C5.31006 15.7759 5.21045 15.7676 5.11084 15.6763L4.29736 14.8628C4.20605 14.7715 4.20605 14.6719 4.27246 14.5723L5.37646 12.7876C5.11914 12.356 4.88672 11.8413 4.77051 11.3018L2.72852 10.8203C2.6123 10.7954 2.5459 10.729 2.5459 10.5879V9.45068C2.5459 9.30957 2.604 9.25146 2.72852 9.21826L4.76221 8.73682C4.88672 8.18066 5.13574 7.64111 5.35986 7.24268L4.26416 5.46631C4.19775 5.3501 4.18945 5.25879 4.28906 5.15918L5.10254 4.3623C5.20215 4.2627 5.29346 4.25439 5.40967 4.3208L7.18604 5.4082C7.57617 5.15918 8.14893 4.91846 8.70508 4.77734L9.18652 2.74365C9.21143 2.62744 9.27783 2.56104 9.41895 2.56104H10.5811C10.7222 2.56104 10.7886 2.62744 10.8135 2.74365L11.3032 4.79395C11.8594 4.91846 12.374 5.15088 12.8057 5.4082L14.582 4.3291C14.6982 4.2627 14.7896 4.271 14.8892 4.3623L15.7026 5.16748C15.8022 5.25879 15.7939 5.3584 15.7275 5.46631L14.6401 7.24268C14.8643 7.64111 15.1133 8.18066 15.2295 8.73682L17.2715 9.21826C17.396 9.25146 17.4541 9.30957 17.4541 9.45068V10.5879C17.4541 10.729 17.3877 10.7954 17.2715 10.8203L15.2295 11.3018C15.105 11.8413 14.8809 12.3643 14.6235 12.7876L15.7192 14.564C15.7856 14.6719 15.7856 14.7632 15.6943 14.8545L14.8809 15.668C14.7812 15.7676 14.6816 15.7676 14.582 15.7012L12.8057 14.6055C12.3574 14.896 11.876 15.1035 11.3032 15.2363L10.8135 17.27C10.7886 17.3945 10.7222 17.4526 10.5811 17.4526H9.41895ZM10 13.1528C11.7266 13.1528 13.1377 11.7417 13.1377 10.0068C13.1377 8.28857 11.7266 6.87744 10 6.87744C8.27344 6.87744 6.854 8.28857 6.854 10.0068C6.854 11.7334 8.27344 13.1528 10 13.1528ZM10 11.6255C9.12012 11.6255 8.38965 10.895 8.38965 10.0068C8.38965 9.13525 9.12012 8.41309 10 8.41309C10.8633 8.41309 11.5938 9.13525 11.5938 10.0068C11.5938 10.8867 10.8633 11.6255 10 11.6255Z" fill="#EBEBF5" fill-opacity="0.6"/>
</svg>
