<svg width="19" height="15" viewBox="0 0 19 15" fill="none" xmlns="http://www.w3.org/2000/svg">
<path d="M3.94678 4.96484C7.74023 4.96484 9.71582 1.82715 13.1274 1.82715C13.9326 1.82715 14.6216 2.00977 15.4351 2.47461C15.8501 2.70703 16.2734 2.57422 16.5059 2.24219C16.7798 1.85205 16.7051 1.2959 16.1655 0.980469C15.2192 0.432617 14.2148 0.166992 13.1274 0.166992C9.29248 0.166992 7.3252 3.29639 3.94678 3.29639C3.1499 3.29639 2.46094 3.12207 1.64746 2.64893C1.22412 2.4165 0.79248 2.55762 0.568359 2.89795C0.302734 3.28809 0.377441 3.84424 0.908691 4.14307C1.85498 4.69092 2.85938 4.96484 3.94678 4.96484ZM14.854 14.959C16.9209 14.959 18.5645 13.3403 18.5645 11.3232C18.5645 10.2109 18.0166 9.11523 17.5518 8.24365L15.6758 4.75732C15.4932 4.41699 15.2109 4.25098 14.854 4.25098C14.4888 4.25098 14.2065 4.41699 14.0239 4.75732L12.1562 8.24365C11.6914 9.11523 11.1436 10.2109 11.1436 11.3232C11.1436 13.3403 12.7954 14.959 14.854 14.959ZM3.95508 9.41406C7.11768 9.41406 9.07666 7.13135 11.708 6.51709C12.04 5.88623 12.3804 5.26367 12.7207 4.63281C9.07666 4.87354 7.23389 7.74561 3.95508 7.74561C3.1582 7.74561 2.46924 7.57129 1.65576 7.09814C1.23242 6.86572 0.800781 7.00684 0.57666 7.34717C0.319336 7.7373 0.394043 8.29346 0.916992 8.59229C1.87158 9.14014 2.86768 9.41406 3.95508 9.41406ZM3.94678 13.8633C6.40381 13.8633 8.12207 12.502 9.98145 11.5972C9.90674 11.0659 9.99805 10.3354 10.1973 9.71289C8.03076 10.6177 6.354 12.2031 3.94678 12.2031C3.1499 12.2031 2.46094 12.0205 1.64746 11.5474C1.22412 11.3149 0.79248 11.4561 0.568359 11.7964C0.302734 12.1865 0.377441 12.7427 0.908691 13.0498C1.85498 13.5977 2.85938 13.8633 3.94678 13.8633Z" fill="#EBEBF5" fill-opacity="0.6"/>
</svg>
