<svg width="31" height="31" viewBox="0 0 31 31" fill="none" xmlns="http://www.w3.org/2000/svg">
<path d="M0.628906 15.3086C0.628906 16.5566 1.66602 17.5762 2.89648 17.5762H13.2324V27.9121C13.2324 29.1602 14.252 30.1797 15.5 30.1797C16.748 30.1797 17.7676 29.1602 17.7676 27.9121V17.5762H28.1035C29.3516 17.5762 30.3711 16.5566 30.3711 15.3086C30.3711 14.0605 29.3516 13.041 28.1035 13.041H17.7676V2.70508C17.7676 1.47461 16.748 0.4375 15.5 0.4375C14.252 0.4375 13.2324 1.47461 13.2324 2.70508V13.041H2.89648C1.66602 13.041 0.628906 14.0605 0.628906 15.3086Z" fill="url(#paint0_linear_1_47)"/>
<defs>
<linearGradient id="paint0_linear_1_47" x1="15.5" y1="-6" x2="15.5" y2="37" gradientUnits="userSpaceOnUse">
<stop stop-color="#2FB8FF"/>
<stop offset="1" stop-color="#9EECD9"/>
</linearGradient>
</defs>
</svg>
