<svg width="25" height="20" viewBox="0 0 25 20" fill="none" xmlns="http://www.w3.org/2000/svg">
<path d="M1.89453 19.207H3.08594C3.84766 19.207 4.42383 18.6211 4.42383 17.8789V16.1406C6.61133 16.2871 9.86328 16.3945 12.5 16.3945C15.1367 16.3945 18.3789 16.2969 20.5664 16.1504V17.8789C20.5664 18.6211 21.1523 19.207 21.9043 19.207H23.0957C23.8574 19.207 24.4336 18.6211 24.4336 17.8789V11.9707C24.4336 10.2129 24.1309 9.23633 23.2031 8.03516L22.3145 6.93164C21.9531 5.17383 21.3086 3.33789 20.9668 2.61523C20.4102 1.42383 19.3262 0.710938 17.9492 0.525391C17.207 0.427734 15.1465 0.369141 12.5 0.369141C9.85352 0.369141 7.7832 0.4375 7.05078 0.525391C5.66406 0.701172 4.58008 1.42383 4.02344 2.61523C3.68164 3.33789 3.03711 5.17383 2.67578 6.93164L1.78711 8.03516C0.859375 9.23633 0.556641 10.2129 0.556641 11.9707V17.8789C0.556641 18.6211 1.14258 19.207 1.89453 19.207ZM5.00977 5.98438C5.21484 5.07617 5.625 3.85547 5.88867 3.35742C6.19141 2.81055 6.5332 2.58594 7.1875 2.49805C7.85156 2.40039 9.53125 2.35156 12.5 2.35156C15.459 2.35156 17.1387 2.39062 17.8125 2.49805C18.457 2.58594 18.7988 2.81055 19.1016 3.35742C19.375 3.8457 19.7656 5.07617 19.9902 5.98438C20.0977 6.44336 19.9023 6.66797 19.4141 6.64844C17.9883 6.57031 16.1133 6.47266 12.5 6.47266C8.88672 6.47266 7.00195 6.57031 5.57617 6.64844C5.08789 6.66797 4.90234 6.44336 5.00977 5.98438ZM5.27344 13.6113C4.31641 13.6113 3.59375 12.8887 3.59375 11.9316C3.59375 10.9844 4.31641 10.252 5.27344 10.252C6.23047 10.252 6.95312 10.9844 6.95312 11.9316C6.95312 12.8887 6.23047 13.6113 5.27344 13.6113ZM19.7168 13.6113C18.7695 13.6113 18.0469 12.8887 18.0469 11.9316C18.0469 10.9844 18.7695 10.252 19.7168 10.252C20.6738 10.252 21.3965 10.9844 21.3965 11.9316C21.3965 12.8887 20.6738 13.6113 19.7168 13.6113ZM9.82422 13.1914C9.11133 13.1914 8.60352 12.6836 8.60352 11.9707C8.60352 11.2578 9.11133 10.75 9.82422 10.75H15.1758C15.8887 10.75 16.3867 11.2578 16.3867 11.9707C16.3867 12.6836 15.8887 13.1914 15.1758 13.1914H9.82422Z" fill="#EBEBF5" fill-opacity="0.3"/>
</svg>
