<svg width="22" height="24" viewBox="0 0 22 24" fill="none" xmlns="http://www.w3.org/2000/svg">
<path d="M1.64322 5.08794C1.82039 5.08794 1.93112 5.04365 2.10829 4.92185L6.14998 2.00962C6.33822 1.87674 6.43788 1.6885 6.43788 1.50026C6.43788 1.24557 6.31607 1.02411 6.10569 0.858015C5.6074 0.437237 4.84335 0.215775 4.09038 0.215775C2.26332 0.215775 0.77952 1.64421 0.77952 3.43805C0.77952 3.91419 0.857032 4.33497 0.989909 4.62287C1.11171 4.8997 1.35532 5.08794 1.64322 5.08794ZM20.3568 5.08794C20.6447 5.08794 20.8772 4.8997 21.0101 4.62287C21.143 4.34604 21.2094 3.91419 21.2094 3.43805C21.2094 1.64421 19.7367 0.215775 17.8985 0.215775C17.1566 0.215775 16.3926 0.437237 15.8832 0.858015C15.6729 1.02411 15.551 1.24557 15.551 1.50026C15.551 1.6885 15.6618 1.87674 15.85 2.00962L19.8917 4.92185C20.0578 5.04365 20.1796 5.08794 20.3568 5.08794ZM1.57678 23.58C1.98649 23.9897 2.6398 23.9787 3.06058 23.5468L4.87657 21.7419C6.61505 22.9489 8.71894 23.6575 11 23.6575C13.27 23.6575 15.385 22.9489 17.1234 21.7419L18.9394 23.5468C19.3602 23.9676 20.0135 23.9897 20.4232 23.58C20.8218 23.1814 20.8218 22.5502 20.4121 22.1405L18.6847 20.4131C20.5561 18.4864 21.7188 15.851 21.7188 12.9498C21.7188 7.02574 16.9241 2.23108 11 2.23108C5.07589 2.23108 0.28123 7.02574 0.28123 12.9498C0.28123 15.851 1.43283 18.4864 3.31526 20.4131L1.57678 22.1405C1.16708 22.5502 1.17815 23.1814 1.57678 23.58ZM11 21.2325C6.41573 21.2325 2.70624 17.523 2.70624 12.9498C2.70624 8.37666 6.41573 4.66716 11 4.66716C15.5732 4.66716 19.2716 8.37666 19.2716 12.9498C19.2716 17.523 15.5732 21.2325 11 21.2325ZM6.33822 14.4115H10.9889C11.5094 14.4115 11.9191 14.0129 11.9191 13.4924V7.22505C11.9191 6.70462 11.5094 6.30598 10.9889 6.30598C10.4796 6.30598 10.0699 6.70462 10.0699 7.22505V12.5734H6.33822C5.81778 12.5734 5.40808 12.972 5.40808 13.4924C5.40808 14.0129 5.81778 14.4115 6.33822 14.4115Z" fill="#EBEBF5" fill-opacity="0.3"/>
</svg>
