<svg width="22" height="21" viewBox="0 0 22 21" fill="none" xmlns="http://www.w3.org/2000/svg">
<path d="M3.08984 20.5098H12.3965C13.8711 20.5098 14.6328 19.7285 14.6328 18.1367V11.0664C14.6328 9.69922 14.0566 8.92773 12.9434 8.75195V6.27148C12.9434 4.09375 14.3203 2.87305 16.0098 2.87305C17.6992 2.87305 19.0859 4.09375 19.0859 6.27148V8.26367C19.0859 9.02539 19.5352 9.42578 20.1113 9.42578C20.6875 9.42578 21.1367 9.04492 21.1367 8.26367V6.4375C21.1367 2.7168 18.627 0.910156 16.0098 0.910156C13.3926 0.910156 10.8926 2.7168 10.8926 6.4375V8.71289H3.08984C1.61523 8.71289 0.853516 9.48438 0.853516 11.0664V18.1367C0.853516 19.7285 1.61523 20.5098 3.08984 20.5098Z" fill="url(#paint0_linear_1_6)"/>
<defs>
<linearGradient id="paint0_linear_1_6" x1="11" y1="-1" x2="11" y2="23" gradientUnits="userSpaceOnUse">
<stop stop-color="#2FB8FF"/>
<stop offset="1" stop-color="#9EECD9"/>
</linearGradient>
</defs>
</svg>
