<svg width="19" height="11" viewBox="0 0 19 11" fill="none" xmlns="http://www.w3.org/2000/svg">
<path d="M17.8984 2.49219C18.1426 2.23828 18.2793 1.93555 18.2793 1.57422C18.2793 0.832031 17.6934 0.246094 16.9707 0.246094C16.5996 0.246094 16.2578 0.392578 16.0039 0.65625L9.49023 7.3457L2.99609 0.65625C2.74219 0.392578 2.39063 0.246094 2.03906 0.246094C1.30664 0.246094 0.720703 0.832031 0.720703 1.57422C0.720703 1.93555 0.847656 2.24805 1.10156 2.49219L8.44531 10.002C8.75781 10.3242 9.09961 10.4707 9.5 10.4805C9.90039 10.4805 10.2422 10.3242 10.5547 10.002L17.8984 2.49219Z" fill="#EBEBF5" fill-opacity="0.6"/>
</svg>
