<svg width="23" height="22" viewBox="0 0 23 22" fill="none" xmlns="http://www.w3.org/2000/svg">
<path d="M0.835938 14.4844C0.835938 17.6973 3.63867 20.8711 6.49023 20.8711C9.00977 20.8711 10.2988 18.6934 11.5488 14.8164C11.6367 14.8164 11.7246 14.8066 11.8125 14.8066C11.959 14.7969 12.1055 14.7773 12.2422 14.7578V18.7227C12.2422 20.5977 13.2188 21.6133 15.0352 21.6133C18.248 21.6133 21.4316 18.8105 21.4316 15.9492C21.4316 13.4297 19.2344 12.1406 15.3574 10.8906C15.3574 10.8027 15.3574 10.7246 15.3477 10.6367C15.3379 10.4902 15.3281 10.3535 15.2891 10.207H19.2734C21.1387 10.207 22.1543 9.23047 22.1543 7.41406C22.1543 4.20117 19.3516 1.01758 16.5 1.01758C13.9805 1.01758 12.6816 3.20508 11.4316 7.0918C11.3438 7.08203 11.2656 7.0918 11.1777 7.0918C11.0312 7.10156 10.8848 7.12109 10.748 7.15039V3.17578C10.748 1.30078 9.77148 0.285156 7.95508 0.285156C4.74219 0.285156 1.55859 3.08789 1.55859 5.93945C1.55859 8.45898 3.75586 9.75781 7.62305 11.0078C7.63281 11.0957 7.63281 11.1934 7.64258 11.2812C7.64258 11.418 7.66211 11.5547 7.69141 11.6914H3.7168C1.85156 11.6914 0.835938 12.668 0.835938 14.4844ZM9.41016 10.9492C9.41016 9.79688 10.3379 8.85938 11.4902 8.85938C12.6426 8.85938 13.5801 9.80664 13.5801 10.9492C13.5801 12.1016 12.6426 13.0293 11.4902 13.0293C10.3379 13.0293 9.41016 12.0918 9.41016 10.9492ZM10.2402 10.9492C10.2402 11.6426 10.7969 12.1895 11.4902 12.1895C12.1738 12.1895 12.7305 11.6426 12.7305 10.9492C12.7305 10.2559 12.1738 9.69922 11.4902 9.69922C10.7969 9.69922 10.2402 10.2559 10.2402 10.9492Z" fill="#EBEBF5" fill-opacity="0.3"/>
</svg>
