
<svg width="17" height="18" viewBox="0 0 17 18" fill="none" xmlns="http://www.w3.org/2000/svg">
<path d="M8.5 17.6064C8.94824 17.6064 9.22217 17.291 9.22217 16.8345V15.1992L10.3594 15.9048C10.708 16.1538 11.0981 16.1289 11.3389 15.7803C11.5298 15.4731 11.4634 15.083 11.0898 14.8589L9.22217 13.7632V12.7588L9.03955 9.95312L11.3887 11.5137L12.252 12.0117L12.2769 14.1699C12.2852 14.6099 12.584 14.8755 12.9492 14.8506C13.3726 14.834 13.5801 14.4937 13.5386 14.0786L13.4971 12.7256L14.9248 13.5557C15.3149 13.7881 15.7217 13.6885 15.9375 13.3066C16.145 12.9248 16.0288 12.5098 15.647 12.2939L14.2275 11.4722L15.4146 10.833C15.7881 10.6587 15.979 10.3101 15.7881 9.93652C15.6138 9.60449 15.2402 9.47998 14.8584 9.6875L12.9741 10.75L12.1108 10.252L9.5708 9.00684L12.1108 7.76172L12.9741 7.25537L14.8584 8.32617C15.2402 8.53369 15.6221 8.40088 15.7881 8.07715C15.979 7.70361 15.7964 7.35498 15.4062 7.17236L14.2275 6.5415L15.647 5.71973C16.0454 5.49561 16.1533 5.09717 15.9375 4.70703C15.73 4.3335 15.3149 4.22559 14.9248 4.45801L13.4971 5.27148L13.5386 3.93506C13.5801 3.51172 13.3726 3.17969 12.9492 3.16309C12.584 3.13818 12.2852 3.40381 12.2769 3.83545L12.252 6.00195L11.3887 6.5L9.03955 8.06055L9.22217 5.25488V4.25049L11.0898 3.15479C11.4634 2.92236 11.5298 2.54053 11.3389 2.2251C11.1064 1.87646 10.708 1.85986 10.3594 2.10889L9.22217 2.81445V1.1709C9.22217 0.714355 8.94824 0.407227 8.5 0.407227C8.06836 0.407227 7.77783 0.722656 7.77783 1.1709V2.81445L6.62402 2.10889C6.27539 1.85986 5.89355 1.87646 5.65283 2.2251C5.45361 2.54053 5.53662 2.92236 5.91016 3.15479L7.77783 4.25049V5.25488L7.96045 8.06885L5.61133 6.5L4.73975 5.99365L4.72314 3.83545C4.71484 3.40381 4.41602 3.13818 4.05078 3.16309C3.62744 3.17969 3.41992 3.51172 3.46143 3.93506L3.50293 5.27148L2.0752 4.45801C1.69336 4.23389 1.27002 4.3335 1.0542 4.70703C0.830078 5.09717 0.962891 5.50391 1.34473 5.71973L2.77246 6.5415L1.58545 7.17236C1.20361 7.35498 1.021 7.69531 1.20361 8.07715C1.36963 8.40918 1.75146 8.53369 2.1416 8.32617L4.01758 7.26367L4.88916 7.76172L7.4292 9.00684L4.88916 10.252L4.01758 10.75L2.1333 9.6875C1.75977 9.47168 1.37793 9.60449 1.22021 9.92822C1.021 10.3184 1.20361 10.6587 1.58545 10.833L2.77246 11.4722L1.35303 12.2939C0.962891 12.5098 0.838379 12.9331 1.0542 13.3066C1.27832 13.6885 1.69336 13.7798 2.0752 13.5557L3.50293 12.7339L3.46143 14.0703C3.41162 14.4937 3.62744 14.834 4.05078 14.8506C4.41602 14.8672 4.71484 14.6016 4.72314 14.1699L4.74805 12.0034L5.61133 11.5137L7.96045 9.95312L7.77783 12.7588V13.7549L5.91016 14.8589C5.53662 15.083 5.46191 15.4731 5.65283 15.7803C5.89355 16.1289 6.27539 16.1538 6.62402 15.9048L7.77783 15.1909V16.8345C7.77783 17.291 8.06836 17.6064 8.5 17.6064Z" fill="#EBEBF5" fill-opacity="0.6"/>
</svg>
