<svg width="19" height="18" viewBox="0 0 19 18" fill="none" xmlns="http://www.w3.org/2000/svg">
<path d="M9.5 17.6646C14.2729 17.6646 18.1577 13.7798 18.1577 9.00684C18.1577 4.23389 14.2812 0.349121 9.5083 0.349121C8.94385 0.349121 8.61182 0.681152 8.61182 1.2207V4.17578C8.61182 4.64062 8.93555 4.99756 9.40039 4.99756C9.86523 4.99756 10.189 4.64062 10.189 4.17578V2.25C13.6172 2.59863 16.2485 5.4873 16.2485 9.00684C16.2485 12.7422 13.252 15.7637 9.5 15.7637C5.74805 15.7637 2.73486 12.7422 2.74316 9.00684C2.75146 7.42969 3.29932 5.96045 4.2124 4.81494C4.56934 4.31689 4.63574 3.82715 4.229 3.42041C3.82227 3.03027 3.1748 3.07178 2.75977 3.62793C1.57275 5.10547 0.842285 6.98145 0.842285 9.00684C0.842285 13.7798 4.72705 17.6646 9.5 17.6646ZM10.8364 10.3267C11.542 9.59619 11.4009 8.5752 10.5625 8.01904L6.45361 5.22168C5.90576 4.85645 5.38281 5.37939 5.74805 5.92725L8.53711 10.0361C9.10156 10.8745 10.1143 11.0322 10.8364 10.3267Z" fill="#EBEBF5" fill-opacity="0.6"/>
</svg>
